<svg width="48" height="48" viewBox="0 0 48 48" fill="none" xmlns="http://www.w3.org/2000/svg">
<path d="M8.78655 17.7051H7C7.89327 18.8217 8.54834 19.818 8.78655 22.0856C9.02475 24.3531 8.15795 26.4088 7.69477 26.8955H9.18356C11.2679 24.147 10.2753 19.5088 8.78655 17.7051Z" fill="white"/>
<path d="M11.335 28.2827H10.0186C10.6768 29.0201 11.1594 29.6781 11.335 31.1755C11.5105 32.6729 10.8718 34.0304 10.5305 34.3519H11.6275C13.1633 32.5368 12.432 29.4739 11.335 28.2827Z" fill="white"/>
<mask id="mask0_1642_513" style="mask-type:alpha" maskUnits="userSpaceOnUse" x="12" y="11" width="29" height="29">
<path fill-rule="evenodd" clip-rule="evenodd" d="M22.0438 13.4668C22.399 13.2645 23.2867 12.8426 23.9969 12.7732C21.3041 13.9582 16.2379 18.2528 17.5163 25.952C17.7826 26.819 18.3863 28.0328 18.6704 25.952C19.0255 23.3509 20.002 20.8365 20.5347 19.8828C21.179 20.9372 23.5349 21.2448 25.9904 20.5671C27.0246 20.2817 28.0764 19.8216 29.0255 19.1689C29.0662 19.1408 29.1068 19.1125 29.1471 19.0838C29.2703 18.9961 29.3917 18.905 29.5109 18.8106C29.9767 18.4657 30.3952 18.0325 30.6551 17.7153C30.8703 18.0936 31.2232 18.6186 31.5944 18.9881C32.0563 19.6273 33.2378 20.8152 34.2688 20.4529C34.034 20.6797 33.6974 20.8365 33.2295 20.8365C32.3063 20.8365 31.1285 19.1603 30.6551 18.3222C29.5602 19.5649 27.2816 22.3972 26.9265 23.7844C26.4826 25.5184 26.4826 28.3796 29.8561 29.42C32.5549 30.2524 34.2357 28.9576 34.7387 28.2062H31.454C31.2768 28.187 31.1572 28.1221 30.9801 28.026C30.8912 27.9777 30.7877 27.9216 30.6551 27.8594C30.4025 27.7409 30.251 27.7046 30.1083 27.6704C30.027 27.651 29.9486 27.6322 29.8561 27.5993C29.6009 27.5087 29.535 27.2525 29.8561 27.2525H34.7387C35.1826 27.108 36.0526 26.4722 35.9816 25.0849C35.9157 23.798 35.6919 23.2075 35.5654 23.0365C36.6608 24.3324 38.3086 27.6792 36.3367 30.9807C34.3481 34.31 32.7265 36.2406 32.1642 36.7897C34.3836 35.8938 39.1065 32.8534 40.2428 27.8594C40.9978 24.5411 40.2112 21.0975 39.0286 18.3128C39.1959 18.6178 39.3784 18.9386 39.5774 19.2759C41.6223 22.4736 43.5754 37.2129 29.3234 39.6509C22.399 40.0844 18.9367 36.3562 16.1847 30.7206C13.298 24.8091 15.5632 20.5764 17.5163 16.9349C16.8061 15.7789 15.9006 13.2067 17.9602 12.1663C20.2509 11.0092 21.2062 12.323 21.8267 13.1764C21.9036 13.2822 21.9753 13.3808 22.0438 13.4668ZM37.966 16.1439C38.3345 16.8036 38.6971 17.5323 39.0286 18.3128C38.5708 17.4786 38.226 16.7618 37.966 16.1439ZM33.8924 12.0325C34.4656 11.5735 35.3151 11.238 36.3367 11.6461C37.1438 11.9686 37.1474 12.1578 37.1588 12.7521C37.17 13.3314 37.1885 14.2958 37.966 16.1439C37.1759 14.7294 36.3587 13.6324 35.7632 13.023C35.1207 12.3656 34.5357 12.1008 33.8924 12.0325ZM29.2816 12.4295C30.3635 12.418 31.2359 12.2868 31.9809 12.1748C32.7158 12.0643 33.3267 11.9724 33.8924 12.0325C33.5888 12.2755 33.3627 12.5531 33.2295 12.7732C32.7283 12.5284 30.6237 12.4456 29.2816 12.4295ZM29.2816 12.4295C29.1226 12.4312 28.9591 12.4303 28.7908 12.4264C28.9371 12.4264 29.1025 12.4274 29.2816 12.4295ZM30.6551 17.7153C30.3062 18.1213 29.9211 18.4859 29.5109 18.8106C29.4266 18.8731 29.3407 18.9326 29.254 18.9881C29.6715 18.6135 30.0553 18.2617 30.3157 18.0231C30.5099 17.845 30.6354 17.73 30.6551 17.7153ZM35.5566 23.0262L35.5575 23.0272L35.5377 23.0041C35.5439 23.01 35.5499 23.0176 35.5566 23.0262Z" fill="black"/>
<path fill-rule="evenodd" clip-rule="evenodd" d="M32.9496 23.091C32.3874 23.0621 31.2096 23.091 30.9965 23.4378C30.7302 23.8713 31.1741 25.5186 32.3282 25.9522C32.4075 25.978 32.6147 26.0269 32.8607 26.037V26.0476C33.1448 26.0476 33.3934 25.9898 33.4822 25.9609C34.6362 25.5274 35.0801 23.88 34.8138 23.4465C34.6114 23.1171 33.5385 23.0745 32.9496 23.0958V23.091Z" fill="black"/>
<path d="M16.2326 16.1441C16.5877 16.1441 20.6418 14.2945 20.9377 14.8436L17.5642 19.0053L16.499 24.7276C16.9724 26.3461 18.0259 29.7043 18.452 30.1898C18.9847 30.7968 22.1806 37.2127 22.003 37.5595C21.8255 37.9063 20.2275 36.7792 18.452 36.5191C16.6765 36.259 15.9663 34.3515 15.4337 33.918C14.901 33.4845 14.0132 30.9702 13.0367 27.4154C12.2392 24.5121 13.1254 24.1207 13.0367 20.9127C12.9479 17.7048 12.504 18.0516 13.0367 17.2712C13.5693 16.4909 15.7887 16.1441 16.2326 16.1441Z" fill="black"/>
</mask>
<g mask="url(#mask0_1642_513)">
<path d="M28.8387 14.8438L38.4265 17.5315C40.1132 20.2193 45.6173 23.2885 46.3275 24.8145C47.2152 26.7219 45.0846 36.606 43.2203 39.0336C41.356 41.4613 35.9407 42.2416 31.5019 41.8948C27.0632 41.548 21.204 39.9874 20.5826 39.5538C19.9611 39.1203 15.7887 31.8374 13.4805 28.3693C11.1723 24.9012 14.0132 20.306 14.3683 19.6124C14.6523 19.0575 16.203 17.8783 16.9428 17.3581L28.8387 14.8438Z" fill="white"/>
</g>
<path fill-rule="evenodd" clip-rule="evenodd" d="M9.21936 16.7515C10.1959 15.3643 12.4508 13.8384 14.0132 13.2833C14.8714 11.4625 17.5287 7.69976 21.2928 7.21441C20.1387 6.98296 17.0671 6.78081 14.0132 7.82134C15.2561 6.2896 19.7659 3.72857 27.8622 5.74029C29.9041 6.37603 34.1653 8.30669 34.8755 10.9424C30.8806 10.9712 21.6657 12.0347 17.1204 15.0176C19.4877 14.3238 25.0214 12.9366 28.2173 12.9366H37.9826C38.6632 12.9366 39.9712 13.6475 39.7581 16.4913H39.3143C39.2847 16.2315 39.119 15.6763 38.6928 15.5376C38.2302 15.3873 25.179 15.5635 19.4862 16.6348L17.5642 19.0059L16.499 24.7281C16.9724 26.3467 18.0259 29.7046 18.452 30.1905C18.9433 30.7501 21.6994 36.2501 21.986 37.3746C22.166 37.44 22.3492 37.5015 22.5357 37.5601C28.0753 39.294 33.1 38.9473 37.9826 35.6524H38.4265C38.2785 36.9532 37.0061 39.7447 33.1 40.5079C28.2173 41.4615 21.5592 39.6407 17.9194 37.5601C19.3102 39.0626 22.5357 41.8082 34.5204 41.8082V42.4151C26.9745 43.9761 16.3569 42.6929 11.1724 35.1324C12.001 35.3057 13.5871 34.7335 13.303 31.0572C13.019 27.3809 11.35 27.0401 10.551 27.3292C11.0836 26.5201 11.9892 24.0342 11.35 20.5665C10.7108 17.0982 9.69284 16.607 9.21936 16.7515Z" fill="white"/>
</svg>
