<svg width="20" height="20" viewBox="0 0 20 20" fill="none" xmlns="http://www.w3.org/2000/svg">
<path fill-rule="evenodd" clip-rule="evenodd" d="M19 10C19 14.9706 14.9706 19 10 19C5.02944 19 1 14.9706 1 10C1 5.02944 5.02944 1 10 1C14.9706 1 19 5.02944 19 10ZM4 8C4 7.60838 4.11256 7.24304 4.30709 6.93459C4.66124 6.37304 5.28705 6 6 6H14C14.7129 6 15.3388 6.37304 15.6929 6.93459C15.8874 7.24304 16 7.60838 16 8V12C16 13.1046 15.1046 14 14 14H6C4.89543 14 4 13.1046 4 12V8Z" fill="white"/>
<path d="M3.5 6.5L4.30709 6.93459M16.5 6.5L15.6929 6.93459M4.30709 6.93459C4.11256 7.24304 4 7.60838 4 8V12C4 13.1046 4.89543 14 6 14H14C15.1046 14 16 13.1046 16 12V8C16 7.60838 15.8874 7.24304 15.6929 6.93459M4.30709 6.93459C4.66124 6.37304 5.28705 6 6 6H14C14.7129 6 15.3388 6.37304 15.6929 6.93459M4.30709 6.93459L10 10L15.6929 6.93459M19 10C19 14.9706 14.9706 19 10 19C5.02944 19 1 14.9706 1 10C1 5.02944 5.02944 1 10 1C14.9706 1 19 5.02944 19 10Z" stroke="white" stroke-width="2"/>
</svg>
